<?xml version="1.0" standalone="no"?>
<!DOCTYPE svg PUBLIC "-//W3C//DTD SVG 20010904//EN"
 "http://www.w3.org/TR/2001/REC-SVG-20010904/DTD/svg10.dtd">
<svg version="1.0" xmlns="http://www.w3.org/2000/svg"
 width="512.000000pt" height="512.000000pt" viewBox="0 0 512.000000 512.000000"
 preserveAspectRatio="xMidYMid meet">
<metadata>
Created by potrace 1.16, written by Peter Selinger 2001-2019
</metadata>
<g transform="translate(0.000000,512.000000) scale(0.100000,-0.100000)"
fill="#000000" stroke="none">
<path d="M1828 4255 c-428 -72 -787 -383 -923 -800 -51 -157 -72 -377 -39
-423 38 -55 -63 -52 1694 -52 1757 0 1656 -3 1694 52 33 46 12 266 -39 423
-59 182 -152 333 -290 470 -179 179 -395 291 -640 330 -123 20 -1338 20 -1457
0z m1388 -216 c315 -44 588 -239 731 -524 35 -70 78 -199 88 -267 l7 -48
-1481 0 c-1422 0 -1481 1 -1481 18 0 42 45 193 80 268 99 214 259 375 474 474
77 36 211 75 286 83 88 10 1224 6 1296 -4z"/>
<path d="M850 2766 c0 -112 1 -116 21 -116 42 0 92 -44 173 -154 128 -173 194
-224 313 -246 107 -19 213 9 305 82 20 16 75 79 121 141 120 160 135 172 205
172 75 0 91 -13 208 -169 51 -67 108 -134 126 -148 91 -69 196 -96 301 -78
123 23 189 75 319 252 85 116 125 148 182 148 70 0 108 -32 220 -187 104 -143
175 -194 296 -214 72 -11 163 2 223 33 61 31 123 93 214 216 83 112 128 152
171 152 22 0 22 2 22 116 l0 115 -47 -7 c-136 -20 -216 -80 -338 -254 -79
-113 -126 -150 -191 -150 -58 0 -99 34 -188 154 -128 173 -194 224 -313 246
-64 11 -148 3 -208 -20 -59 -23 -134 -91 -206 -187 -119 -161 -156 -193 -219
-193 -64 0 -98 28 -200 165 -54 72 -113 143 -132 157 -156 118 -361 110 -496
-21 -23 -23 -78 -90 -123 -151 -87 -119 -126 -150 -185 -150 -69 0 -99 27
-236 210 -94 126 -169 176 -295 195 l-43 7 0 -116z"/>
<path d="M903 2120 c-17 -10 -37 -28 -42 -39 -26 -49 -3 -272 44 -414 60 -184
153 -335 290 -472 178 -178 387 -286 635 -329 135 -23 1321 -24 1456 -1 252
43 461 151 639 330 179 178 287 387 330 639 20 117 20 225 -1 254 -38 55 64
52 -1696 52 -1589 0 -1624 0 -1655 -20z m2249 -417 l260 -216 216 216 217 217
99 0 98 0 -7 -47 c-10 -69 -53 -198 -88 -268 -143 -285 -416 -480 -731 -524
-105 -15 -1207 -15 -1312 0 -315 44 -588 239 -731 524 -35 70 -78 199 -88 268
l-7 47 907 0 907 0 260 -217z"/>
</g>
</svg>
