<?xml version="1.0" standalone="no"?>
<!DOCTYPE svg PUBLIC "-//W3C//DTD SVG 20010904//EN"
 "http://www.w3.org/TR/2001/REC-SVG-20010904/DTD/svg10.dtd">
<svg version="1.0" xmlns="http://www.w3.org/2000/svg"
 width="512.000000pt" height="512.000000pt" viewBox="0 0 512.000000 512.000000"
 preserveAspectRatio="xMidYMid meet">
<metadata>
Created by potrace 1.16, written by Peter Selinger 2001-2019
</metadata>
<g transform="translate(0.000000,512.000000) scale(0.100000,-0.100000)"
fill="#000000" stroke="none">
<path d="M2913 4839 c-74 -37 -78 -51 -139 -441 -30 -194 -56 -363 -59 -375
l-5 -23 -743 0 c-723 0 -743 -1 -775 -20 -48 -30 -72 -75 -72 -140 0 -30 96
-823 214 -1762 233 -1863 215 -1749 288 -1793 32 -20 51 -20 938 -20 887 0
906 0 938 20 73 44 55 -70 288 1793 118 939 214 1732 214 1762 0 65 -24 110
-72 140 -32 19 -52 20 -455 20 -233 0 -423 4 -423 9 0 11 69 459 76 494 l6 27
374 0 c353 0 377 1 413 20 107 54 111 208 8 284 -28 21 -39 21 -500 24 -463 2
-473 2 -514 -19z m-253 -1171 c-1 -29 -157 -1029 -162 -1034 -3 -2 -28 4 -56
15 -118 47 -207 56 -540 56 l-312 0 -5 30 c-8 47 -115 912 -115 929 0 14 60
16 595 16 469 0 595 -3 595 -12z m990 -5 c0 -25 -139 -1115 -142 -1119 -9 -8
-534 -24 -605 -19 -78 7 -83 9 -78 29 2 11 41 260 85 551 44 292 83 540 85
553 l5 22 325 0 c303 0 325 -1 325 -17z m-1378 -1306 c32 -9 77 -32 102 -51
25 -19 51 -36 58 -38 10 -4 7 -41 -14 -180 -29 -182 -28 -211 7 -265 41 -62
155 -84 221 -44 53 32 70 74 93 226 12 77 24 153 28 169 l5 29 137 -7 c75 -3
230 -2 345 4 116 5 211 8 213 7 1 -2 -42 -361 -97 -798 -55 -436 -100 -800
-100 -806 0 -10 -149 -13 -710 -13 -485 0 -710 3 -710 10 0 14 -208 1682 -216
1732 -5 34 -4 37 23 41 15 3 147 4 293 2 208 -2 277 -6 322 -18z"/>
</g>
</svg>
