<?xml version="1.0" standalone="yes"?>
<svg xmlns="http://www.w3.org/2000/svg" width="512" height="512">
<path style="fill:#ffffff; stroke:none;" d="M0 0L0 297C2.19685 294.101 3.98393 290.982 7.04012 288.854C13.3984 284.426 22.6593 286 30 286C24.189 265.673 11.0968 245.998 26.5293 226C44.112 203.215 75.4433 210.224 100 213.576C110.114 214.957 122.775 213.977 128.772 224.015C134.517 233.631 128.092 247.055 117 248.786C112.981 249.414 108.985 248.445 105 248.075C93.9717 247.049 83.0194 245.271 72 244.169C67.1342 243.682 58.5297 241.792 54.6042 245.738C52.4576 247.896 53.246 251.393 53.9244 254C55.6103 260.48 58.6411 266.86 61.2809 273C62.7948 276.521 64.065 282.754 67.4182 284.972C72.2004 288.136 83.4184 286 89 286L143 286C139.003 264.472 138.939 241.792 136.83 220C135.306 204.253 132.252 187.719 135.262 172C138.846 153.282 155.993 140.218 175 143.325C191.768 146.066 203.766 159.068 218 167C220.301 157.334 220.214 146.875 221.17 137C223.332 114.661 225.668 92.3394 227.83 70C229.66 51.0904 230.428 31.7887 244.093 17.0008C247.342 13.4852 250.871 10.4492 255 8.01852C285.764 -10.0911 317.965 17.5397 343 33.3187L363 45.9499C372.653 52.0043 382.377 57.95 392 64.0532C407.716 74.021 425.273 83.3545 433.51 101C442.556 120.379 436.015 140.052 421.575 154.714C410.2 166.263 393.813 173.911 380 182.2C356.608 196.236 333.393 210.565 310 224.6C293.109 234.735 276.322 248.135 256 249.675C239.669 250.913 224.787 239.75 218.926 225C216.774 219.585 217.502 212.171 214.682 207.325C212.136 202.949 206.034 200.104 202 197.28C192.063 190.324 180.49 178.279 168 177C168 203.825 172.476 230.27 173.965 257C174.337 263.686 175.182 270.338 175.83 277C176.067 279.438 175.42 283.243 177.603 284.972C179.876 286.772 184.307 286 187 286L212 286L309 286C302.376 277.785 290.035 271.523 286.803 261C282.707 247.665 297.994 235.997 310 242C315.135 244.568 318.868 249.063 323 252.91C330.27 259.68 337.819 266.176 345 273.039C349.397 277.242 354.055 283.365 360 285.411C366.319 287.586 375.363 286 382 286L429 286C430.152 271.9 435.086 257.929 437.576 244C438.52 238.715 439.773 230.745 434.656 227.09C428.061 222.379 416.756 227.476 410 229.67C390.117 236.126 369.99 241.91 350 248.025C338.271 251.612 322.82 247.222 324.109 232C325.327 217.616 341.94 215.411 353 211.975C368.979 207.01 384.979 202.106 401 197.28C415.82 192.816 432.051 188.574 447 195.313C450.973 197.104 454.702 199.428 457.985 202.301C482.545 223.794 468.492 259.376 463 286C477.459 286 504.486 280.232 511 297C514.105 289.601 512 278.007 512 270L512 210L512 0L0 0z"/>
<path style="fill:#000000; stroke:none;" d="M218 167C209.753 160.644 201.169 154.276 192 149.309C170.637 137.735 142.136 142.242 135.677 169C131.623 185.792 135.194 204.097 136.83 221C138.249 235.658 139.412 250.341 140.83 265C141.503 271.953 141.379 279.193 143 286L90 286C84.1479 286 73.362 288.062 68.2245 284.972C64.1597 282.527 62.6107 275.133 60.8503 271C58.4944 265.469 55.8773 259.782 54.2099 254C53.4953 251.522 52.8015 248.622 54.6181 246.433C58.386 241.891 67.9551 243.752 73 244.424C83.298 245.797 93.6568 247.113 104 248.075C108.925 248.533 114.066 249.739 119 248.606C130.235 246.024 134.662 231.129 128.146 222.093C122.156 213.788 110.061 214.813 101 213.576C77.0601 210.308 43.8016 202.692 26.5293 225.001C11.757 244.081 22.0726 266.677 30 286C22.5299 286 12.5023 284.216 6.09414 288.854C-0.357924 293.524 0 300.877 0 308C0 323.18 1.42291 338.095 4.39969 353C16.1483 411.826 49.3352 470.622 99 505.696C107.234 511.511 117.44 510 127 510L184 510L338 510L384 510C391.276 510 400.038 511.309 407 508.891C411.963 507.167 415.986 503.453 420 500.196C427.692 493.954 435.155 487.252 441.91 480C469.38 450.511 488.883 416.196 501.33 378C504.908 367.02 513.115 346.338 504.581 336.105C497.116 327.153 481.898 328.751 476.442 339.004C473.884 343.811 473.359 349.763 472.116 355C470.212 363.02 467.837 371.283 464.935 379C454.253 407.407 437.974 433.106 417.039 455C410.631 461.702 404.11 469.671 396 474.436C392.396 476.553 388.019 476 384 476L363 476L280 476L168 476L134 476C129.061 476 122.721 477.036 118 475.411C113.306 473.796 109.602 469.382 106 466.166C97.9797 459.004 90.5933 451.363 83.804 443C55.8064 408.514 35.9259 363.855 34 319L389 319L476 319C485.861 319 500.996 322.036 508.211 313.671C514.978 305.825 512.897 291.421 502.996 287.228C498.686 285.403 493.57 286 489 286L463 286C470.451 259.496 482.68 218.311 455 199.221C451.657 196.915 447.888 194.973 444 193.774C437.487 191.766 430.737 191.924 424 192.004C414.915 192.112 406.61 195.38 398 197.859C379.286 203.247 360.493 208.897 342 215.001C333.046 217.956 324.61 221.15 324.044 232C323.197 248.251 338.148 251.956 351 248.025C370.651 242.014 390.467 236.383 410 230C416.598 227.844 427.272 222.813 433.811 227.09C439.361 230.721 438.414 238.381 437.388 244C434.867 257.808 429.612 271.967 429 286L380 286C373.719 286 364.637 287.659 359 284.486C353.6 281.447 349.476 276.259 345 272.09C338.065 265.629 330.937 259.369 324 252.91C318.876 248.139 314.135 242.23 307 240.532C293.733 237.377 282.219 250.087 287.144 262.999C290.66 272.215 301.795 279.706 309 286L211 286L187 286C184.114 285.999 179.859 286.652 177.603 284.397C175.509 282.302 176.091 278.681 175.83 276C175.149 268.997 174.426 262.018 173.911 255C172.006 229.003 168 203.106 168 177C180.504 179.23 191.806 190.916 202 197.975C206.069 200.793 212.213 203.721 214.682 208.184C217.455 213.197 216.732 220.478 218.926 226C224.817 240.826 238.966 250.268 255 249.871C269.58 249.51 281.874 242.29 294 235C306.378 227.558 318.722 220.032 331 212.424C352.861 198.88 374.952 185.636 397 172.4C418.276 159.627 439.95 143.86 437.91 116C436.304 94.078 419.251 80.5041 402 69.8079C379.919 56.1164 357.981 42.1725 336 28.3187C323.536 20.4627 310.967 10.6861 297 5.6983C277.711 -1.19037 255.967 1.65079 242.326 18C230.171 32.567 229.566 51.0628 227.83 69C225.668 91.3394 223.332 113.661 221.17 136C220.173 146.296 219.891 156.815 218 167z"/>
<path style="fill:#ffffff; stroke:none;" d="M273.004 36.7423C261.212 41.3041 262.755 60.8779 261.424 71C256.734 106.684 253.97 143.119 251.086 179C250.345 188.213 248.33 197.743 249.093 207C249.613 213.295 252.533 216.834 259 214.955C273.294 210.803 287.411 199.224 300 191.424C323.513 176.856 347.281 162.631 371 148.4C379.587 143.247 389.523 138.548 396.985 131.815C400.117 128.989 403.303 125.383 403.743 121C404.971 108.77 388.414 101.39 380 96.0532C354.756 80.0417 329.374 64.2287 304 48.4236C295.765 43.2939 283.579 32.6512 273.004 36.7423M511 308C504.641 321.251 491.489 319 479 319L395 319L34 319C34.9268 363.905 55.9303 409.667 83.804 444C90.2947 451.995 97.3329 459.32 105 466.166C108.602 469.382 112.306 473.796 117 475.411C121.721 477.036 128.061 476 133 476L167 476L280 476L363 476L385 476C389.019 476 393.396 476.553 397 474.436C405.119 469.666 411.536 461.65 418.015 455C438.773 433.693 455.31 407.075 465.302 379C467.958 371.538 470.286 363.706 472.116 356C473.361 350.754 473.897 344.824 476.442 340.001C483.409 326.797 503.742 327.653 507.467 343C508.825 348.595 507.192 354.556 505.87 360C503.646 369.16 500.982 378.061 498 387C486.053 422.805 464.579 456.302 437.999 483C429.363 491.674 418.53 503.823 407 508.517C402.246 510.452 397.022 510 392 510L367 510L279 510L160 510L125 510C118.877 510 111.87 510.93 106 508.891C100.237 506.889 95.5773 502.272 91 498.41C81.2961 490.222 72.2315 481.527 63.8449 472C37.4262 441.988 18.3162 406.664 8.11574 368C4.349 353.723 1.00164 338.822 1 324C-1.18893 329.216 0 336.381 0 342L0 380L0 512L512 512L512 369L512 328C512 321.846 513.395 313.707 511 308z"/>
</svg>
