<?xml version="1.0" standalone="no"?>
<!DOCTYPE svg PUBLIC "-//W3C//DTD SVG 20010904//EN"
 "http://www.w3.org/TR/2001/REC-SVG-20010904/DTD/svg10.dtd">
<svg version="1.0" xmlns="http://www.w3.org/2000/svg"
 width="512.000000pt" height="512.000000pt" viewBox="0 0 512.000000 512.000000"
 preserveAspectRatio="xMidYMid meet">
<metadata>
Created by potrace 1.16, written by Peter Selinger 2001-2019
</metadata>
<g transform="translate(0.000000,512.000000) scale(0.100000,-0.100000)"
fill="#000000" stroke="none">
<path d="M2670 5089 c-163 -32 -306 -182 -355 -374 -8 -33 -40 -323 -71 -645
-30 -322 -58 -593 -62 -602 -6 -14 -24 -5 -109 56 -188 134 -282 172 -410 164
-199 -12 -323 -170 -323 -410 0 -52 73 -906 84 -986 l5 -32 -381 2 -381 3 -64
155 c-35 85 -67 174 -70 196 -5 37 -3 44 18 55 33 17 111 14 354 -15 260 -32
283 -32 326 -3 75 50 101 143 62 224 -33 70 -63 80 -339 113 -273 33 -393 37
-469 16 -183 -48 -294 -191 -295 -376 0 -82 26 -169 106 -357 4 -8 -25 -12
-98 -15 -117 -3 -152 -20 -182 -82 -30 -64 -18 -340 25 -566 96 -502 338 -960
693 -1315 126 -126 262 -240 309 -260 54 -22 2979 -23 3033 0 82 34 342 277
477 445 236 293 416 659 502 1020 43 182 28 250 -65 298 -56 28 -94 28 -150 0
-59 -30 -83 -69 -105 -170 -99 -463 -350 -890 -706 -1201 l-76 -67 -1394 0
-1394 0 -100 89 c-345 307 -594 744 -685 1201 -15 80 -31 175 -35 213 l-7 67
2332 0 2332 0 38 21 c56 32 83 87 78 158 -5 67 -31 111 -82 135 -28 13 -69 16
-221 16 -173 0 -186 1 -181 18 29 96 79 365 83 447 11 214 -66 356 -237 439
-63 30 -69 31 -200 30 l-135 0 -408 -127 c-224 -70 -419 -134 -433 -143 -62
-41 -85 -161 -41 -224 33 -49 70 -72 124 -77 41 -4 107 13 428 112 446 136
463 141 508 126 74 -25 75 -75 11 -373 l-49 -228 -346 0 -346 0 -236 219
c-250 232 -273 247 -352 238 -107 -12 -174 -129 -131 -230 12 -28 126 -149
196 -206 l25 -20 -665 2 -665 2 -42 465 c-23 256 -42 500 -42 543 -1 86 4 90
62 61 23 -12 343 -233 405 -280 2 -1 8 -31 12 -66 10 -76 20 -110 49 -167 73
-142 232 -218 403 -191 129 20 67 -15 1081 601 486 294 535 330 608 439 142
211 84 483 -139 653 -68 52 -1059 675 -1133 712 -108 55 -247 76 -359 54z
m187 -349 c51 -23 1015 -626 1090 -682 53 -39 93 -99 93 -138 0 -30 -23 -70
-62 -107 -40 -39 -1325 -819 -1381 -839 -22 -8 -48 -14 -59 -14 -24 0 -48 54
-48 107 0 61 139 1493 150 1546 28 133 105 178 217 127z"/>
</g>
</svg>
