<?xml version="1.0" standalone="no"?>
<!DOCTYPE svg PUBLIC "-//W3C//DTD SVG 20010904//EN"
 "http://www.w3.org/TR/2001/REC-SVG-20010904/DTD/svg10.dtd">
<svg version="1.0" xmlns="http://www.w3.org/2000/svg"
 width="512.000000pt" height="512.000000pt" viewBox="0 0 512.000000 512.000000"
 preserveAspectRatio="xMidYMid meet">
<metadata>
Created by potrace 1.16, written by Peter Selinger 2001-2019
</metadata>
<g transform="translate(0.000000,512.000000) scale(0.100000,-0.100000)"
fill="#000000" stroke="none">
<path d="M1228 5030 c-25 -15 -34 -54 -70 -312 l-32 -238 -156 0 c-178 0 -210
-10 -272 -78 -52 -58 -60 -94 -56 -264 3 -146 3 -147 -20 -153 -34 -8 -103
-75 -123 -120 -18 -38 -19 -120 -19 -1823 0 -1969 -5 -1819 63 -1891 18 -18
50 -42 72 -52 38 -18 81 -19 825 -19 744 0 787 1 825 19 22 10 54 34 72 52 68
72 63 -78 63 1891 0 1703 -1 1785 -19 1823 -20 45 -89 112 -123 120 -23 6 -23
7 -20 153 4 170 -4 206 -56 264 -62 68 -94 78 -272 78 l-156 0 -32 238 c-37
262 -45 298 -72 312 -24 13 -400 13 -422 0z m321 -317 c13 -93 26 -183 28
-200 l6 -33 -143 0 -143 0 6 33 c2 17 15 107 28 200 l23 167 86 0 86 0 23
-167z m475 -407 c42 -17 56 -55 56 -146 0 -91 -14 -129 -56 -146 -44 -18
-1112 -21 -1164 -3 -42 15 -60 58 -60 147 0 91 14 131 54 148 46 20 1122 20
1170 0z m160 -480 c23 -9 37 -24 45 -46 16 -47 16 -3433 0 -3480 -22 -61 -4
-60 -787 -60 -503 0 -718 3 -742 11 -64 23 -60 -91 -60 1787 0 1249 3 1718 11
1742 22 61 2 59 787 60 587 0 719 -2 746 -14z"/>
<path d="M1220 540 c-13 -13 -20 -33 -20 -60 0 -27 7 -47 20 -60 19 -19 33
-20 260 -20 227 0 241 1 260 20 13 13 20 33 20 60 0 27 -7 47 -20 60 -19 19
-33 20 -260 20 -227 0 -241 -1 -260 -20z"/>
<path d="M1860 540 c-13 -13 -20 -33 -20 -60 0 -64 24 -80 120 -80 96 0 120
16 120 80 0 64 -24 80 -120 80 -67 0 -83 -3 -100 -20z"/>
<path d="M3468 5030 c-25 -15 -34 -54 -70 -312 l-32 -238 -156 0 c-178 0 -210
-10 -272 -78 -52 -58 -60 -94 -56 -264 3 -146 3 -147 -20 -153 -34 -8 -103
-75 -123 -120 -18 -38 -19 -120 -19 -1823 0 -1969 -5 -1819 63 -1891 18 -18
50 -42 72 -52 38 -18 81 -19 825 -19 744 0 787 1 825 19 22 10 54 34 72 52 68
72 63 -78 63 1891 0 1703 -1 1785 -19 1823 -20 45 -89 112 -123 120 -23 6 -23
7 -20 153 4 170 -4 206 -56 264 -62 68 -94 78 -272 78 l-156 0 -32 238 c-37
262 -45 298 -72 312 -24 13 -400 13 -422 0z m321 -317 c13 -93 26 -183 28
-200 l6 -33 -143 0 -143 0 6 33 c2 17 15 107 28 200 l23 167 86 0 86 0 23
-167z m475 -407 c42 -17 56 -55 56 -146 0 -91 -14 -129 -56 -146 -44 -18
-1112 -21 -1164 -3 -42 15 -60 58 -60 147 0 91 14 131 54 148 46 20 1122 20
1170 0z m-1144 -679 l0 -213 29 -46 c35 -55 96 -88 164 -88 l47 0 0 -92 c0
-80 3 -97 25 -134 37 -63 95 -94 175 -94 80 0 138 31 175 94 l25 43 0 371 0
372 315 0 c353 0 374 -3 394 -60 16 -47 16 -3433 0 -3480 -22 -61 -4 -60 -787
-60 -503 0 -718 3 -742 11 -64 23 -60 -91 -60 1787 0 1249 3 1718 11 1742 16
43 56 59 152 60 l77 0 0 -213z m240 37 c0 -181 -6 -214 -40 -214 -34 0 -40 33
-40 214 l0 176 40 0 40 0 0 -176z m240 -160 c0 -212 -4 -342 -10 -355 -6 -10
-19 -19 -30 -19 -11 0 -24 9 -30 19 -6 13 -10 143 -10 355 l0 336 40 0 40 0 0
-336z"/>
<path d="M3460 540 c-13 -13 -20 -33 -20 -60 0 -27 7 -47 20 -60 19 -19 33
-20 260 -20 227 0 241 1 260 20 13 13 20 33 20 60 0 27 -7 47 -20 60 -19 19
-33 20 -260 20 -227 0 -241 -1 -260 -20z"/>
<path d="M4100 540 c-13 -13 -20 -33 -20 -60 0 -64 24 -80 120 -80 96 0 120
16 120 80 0 64 -24 80 -120 80 -67 0 -83 -3 -100 -20z"/>
</g>
</svg>
