<?xml version="1.0" encoding="UTF-8" standalone="no"?>
<!-- Created with Inkscape (http://www.inkscape.org/) -->

<svg
   width="512"
   height="512"
   viewBox="0 0 135.46667 135.46667"
   version="1.1"
   id="svg5"
   inkscape:version="1.1 (c4e8f9e, 2021-05-24)"
   sodipodi:docname="dibujo.svg"
   xmlns:inkscape="http://www.inkscape.org/namespaces/inkscape"
   xmlns:sodipodi="http://sodipodi.sourceforge.net/DTD/sodipodi-0.dtd"
   xmlns="http://www.w3.org/2000/svg"
   xmlns:svg="http://www.w3.org/2000/svg">
  <sodipodi:namedview
     id="namedview7"
     pagecolor="#ffffff"
     bordercolor="#666666"
     borderopacity="1.0"
     inkscape:pageshadow="2"
     inkscape:pageopacity="0.0"
     inkscape:pagecheckerboard="0"
     inkscape:document-units="px"
     showgrid="false"
     inkscape:zoom="1.5136719"
     inkscape:cx="255.66968"
     inkscape:cy="255.66968"
     inkscape:window-width="1920"
     inkscape:window-height="1025"
     inkscape:window-x="0"
     inkscape:window-y="1107"
     inkscape:window-maximized="1"
     inkscape:current-layer="layer1" />
  <defs
     id="defs2" />
  <g
     inkscape:label="Capa 1"
     inkscape:groupmode="layer"
     id="layer1">
    <g
       id="g26819"
       transform="matrix(0.31625627,0,0,-0.31625627,67.994005,81.471542)">
      <path
         d="M 0,0 C 12.237,8.687 39.597,24.98 14.839,28.414 12.561,28.73 10.437,27.276 9.854,25.052 8.922,21.484 -3.917,0.044 0,0 m 22.897,-34.45 c -13.181,5.141 -21.251,7.899 -34.24,12.289 -0.478,1.364 -3.967,-14.785 -8.639,-16.643 -2.137,-0.849 -4.109,1.07 -5.685,3.208 -1.495,2.029 -4.785,2.871 -3.617,8.76 3.875,19.531 14.502,37.209 23.507,55.615 0.553,6.513 -14.981,-4.12 -16.922,-0.907 -9.987,16.53 44.488,23.062 54.523,6.581 C 42.363,14.423 24.802,-0.914 8.401,-8.964 9.728,-17.774 38.489,-19.279 40.856,-30.039 40.598,-41.063 29.008,-37.216 22.897,-34.45"
         style="fill:#ffffff;fill-opacity:1;fill-rule:nonzero;stroke:none"
         id="path23931" />
    </g>
    <g
       id="g26822"
       transform="matrix(0.31625627,0,0,-0.31625627,72.450325,66.432512)">
      <path
         d="M 0,0 C 0.696,2.17 0.815,2.88 1.371,4.725 1.728,5.908 6.897,17.019 5.466,17.689 2.929,18.875 -3.537,19.547 -4.071,18.31 -6.683,12.259 -8.938,7.046 -11.803,0.247 -8.037,1.217 -3.903,0.974 0,0"
         style="fill:#ed184e;fill-opacity:1;fill-rule:nonzero;stroke:none"
         id="path23935" />
    </g>
    <g
       id="g26825"
       transform="matrix(0.31625627,0,0,-0.31625627,120.09877,58.173259)">
      <path
         d="m 0,0 c -15.58,0.382 -18.448,2.705 -36.911,-0.354 -6.66,0.313 -17.796,-6.702 -19.654,-1.362 -12.13,40.385 -83.529,75.189 -23.601,53.791 C -38.665,34.68 -23.24,29.245 0,0 m -73.898,-5.682 c -39.999,16.905 -110.952,24.984 -139.588,17.739 -0.98,-0.191 -31.327,-8.964 -38.608,-13.625 -5.972,-3.14 2.099,5.932 3.773,9.713 21.3,35.114 74.114,79.118 119.128,45.582 20.988,-13.81 51.093,-40.408 55.295,-59.409 M 29.044,-8.541 c -58.59,94.254 -213.253,112.381 -306.467,65.586 -17.302,-11.073 -76.385,-35.789 -55.785,-62.057 10.941,-8.384 3.083,6.693 11.643,12.78 26.386,27.508 62.51,42.477 96.221,50.968 -12.727,-9.442 -19.735,-19.016 -30.6,-30.611 -4.158,-6.515 -9.408,-14.493 -13.413,-20.343 -0.413,-4.663 -3.727,-19.239 -10.707,-12.465 -5.169,1.721 -37.633,15.445 -27.787,5.108 -1.324,0.073 -5.748,-0.364 -3.499,-3.883 -0.06,-0.737 3.678,-1.615 2.208,-2.197 -5.091,0.213 2.808,-2.632 4.307,-3.169 8.654,-3.291 17.054,-9.165 25.073,-14.534 2.492,-1.668 5.508,-2.365 8.483,-1.993 24.393,3.048 35.973,20.169 68.239,22.643 30.825,6.05 77.947,-1.811 102.091,-10.243 22.721,-9.048 37.973,-13.713 61.891,-3.952 17.759,9.6 67.897,-15.897 68.102,8.362"
         style="fill:#ed184e;fill-opacity:1;fill-rule:nonzero;stroke:none"
         id="path23939" />
    </g>
    <g
       id="g26828"
       transform="matrix(0.31625627,0,0,-0.31625627,7.4330946,91.834785)">
      <path
         d="M 0,0 C -36.775,4.252 -0.631,105.177 9.224,70.974 9.238,70.925 9.248,70.873 9.252,70.822 10.246,59.313 3.601,48.645 0.429,37.731 0.424,37.714 0.42,37.698 0.416,37.681 -1.647,28.169 -7.3,9.674 6.724,25.522 19.763,39.556 27.737,55.884 31.656,74.11 c 0.545,2.536 4.006,2.976 5.122,0.636 C 46.53,54.295 19.523,-3.124 0,0"
         style="fill:#ffffff;fill-opacity:1;fill-rule:nonzero;stroke:none"
         id="path23943" />
    </g>
    <g
       id="g26831"
       transform="matrix(0.31625627,0,0,-0.31625627,-237.28408,241.14481)">
      <g
         id="g23945"
         transform="translate(866.9199,468.7246)">
        <path
           d="M 0,0 C -18.148,3.89 -2.746,31.967 -4.893,42.243 -8.14,40.447 -11.403,31.474 -14.492,27.566 -22.987,15.721 -26.68,-7.778 -39.665,14.381 c -1.078,6.06 3.005,42.25 -2.825,27.26 0.311,-0.135 -11.017,-24.113 -11.901,-35.2 -0.171,-1.504 -2.906,-2.892 -4.065,-1.652 -17.496,7.143 4.266,35.35 6.39,48.647 6.742,17.074 15.596,41.046 27.92,12.71 2.976,-4.375 -3.041,-38.959 1.253,-33.277 6.435,7.986 24.83,48.027 36.218,40.396 C 19.339,67.873 19.87,62.732 17.077,55.316 9.683,44.091 8.241,1.214 0,0"
           style="fill:#ffffff;fill-opacity:1;fill-rule:nonzero;stroke:none"
           id="path23947" />
      </g>
    </g>
    <g
       id="g26835"
       transform="matrix(0.31625627,0,0,-0.31625627,82.577008,83.954945)">
      <path
         d="m 0,0 c -1.265,-7.26 13.647,-2.167 18.881,-5.465 3.923,-1.842 6.776,-5.219 5.76,-8.785 -1.174,-4.12 -8.256,-2.004 -9.878,-2.607 -14.671,-1.506 -35.01,-1.182 -31.369,17.867 5.654,15.792 13.66,28.04 22.039,43.16 2.919,1.618 -0.954,0.639 0.242,2.868 5.717,5.379 28.116,11.619 33.953,3.791 9.155,-19.564 -28.358,6.311 -28.123,-27.084 3.955,-0.229 10.435,2.02 10.22,-3.491 1.788,-1.078 5.267,-2.793 1.699,-4.369 C 29.77,10.229 8.062,12.235 3.858,9.781 1.847,9.675 0.428,3.919 0,0"
         style="fill:#ffffff;fill-opacity:1;fill-rule:nonzero;stroke:none"
         id="path23951" />
    </g>
    <g
       id="g26838"
       transform="matrix(0.31625627,0,0,-0.31625627,91.197475,93.412967)">
      <path
         d="m 0,0 c -5.207,2.952 -5.815,11.042 0.526,13.97 5.558,18.617 11.639,54.692 28.041,67.749 2.012,1.601 5.031,0.993 6.24,-1.275 C 41.442,67.99 24.448,39.961 20.376,28.884 19.702,24.759 13.752,17.104 22.372,19.642 33.202,20.75 52.136,23.604 51.15,8.087 34.132,11.666 11.654,0.51 0,0"
         style="fill:#ffffff;fill-opacity:1;fill-rule:nonzero;stroke:none"
         id="path23955" />
    </g>
    <g
       id="g26841"
       transform="matrix(0.31625627,0,0,-0.31625627,48.798894,79.91711)">
      <path
         d="M 0,0 C 12.821,11.614 33.668,28.967 2.924,26.247 -5.102,24.997 0.946,22.953 0.229,17.76 -0.909,14.864 -0.565,9.383 -1.558,6.476 -1.302,5.386 -2.029,3.652 -2.748,1.951 -3.466,0.25 -1.369,-1.24 0,0 m 22.625,-3.232 c -8.17,-7.902 7.537,-15.831 4.468,-27.895 3.981,-13.938 -52.93,-46.936 -54.229,-16.262 -0.741,4.892 7.866,-0.981 11.693,1.269 11.903,4.463 24.988,12.269 31.063,23.507 -6.78,4.08 -18.081,0.05 -24.961,-1.132 -2.142,-5.964 -3.493,-12.951 -4.785,-18.955 -1.946,-1.932 -3.054,-2.904 -4.237,-0.622 -1.852,-0.292 -3.139,-1.157 -3.845,1.19 -5.772,6.415 -5.554,12.977 -2.584,21.234 4.405,14.228 7.867,29.272 15.371,40.946 2.499,4.407 -1.533,1.616 -3.521,2.213 -0.327,0.582 2.301,2.511 0.129,1.918 C -29.087,31.305 3.43,44.029 12.746,42.406 33.59,41.7 38.23,8.188 23.021,-2.768"
         style="fill:#ffffff;fill-opacity:1;fill-rule:nonzero;stroke:none"
         id="path23959" />
    </g>
    <g
       id="g26844"
       transform="matrix(0.31625627,0,0,-0.31625627,104.65163,92.42685)">
      <path
         d="M 0,0 C -24.902,-4.096 -3.672,34.459 0.675,50.42 3.83,57.015 12.849,85.678 21.826,79.307 27.386,73.859 24.605,66.738 22.604,59.873 22.975,56.404 -1.041,15.746 8.787,16.976 19.134,18.753 30.298,22.698 34.923,11.092 25.239,4.372 10.855,1.785 0,0"
         style="fill:#ffffff;fill-opacity:1;fill-rule:nonzero;stroke:none"
         id="path23963" />
    </g>
    <g
       id="g26847"
       transform="matrix(0.31625627,0,0,-0.31625627,124.27497,79.695067)">
      <path
         d="M 0,0 C 1.781,4.274 2.405,10.037 3.448,14.88 3.815,16.586 1.725,17.739 0.489,16.508 -3.861,12.171 -7.796,5.114 -9.975,-1.19 -10.47,-2.623 -7.064,-2.639 -4.6,-2.789 -2.628,-2.909 -0.76,-1.823 0,0 m 0.424,-40.579 c -15.33,2.656 -7.301,13.273 -4.83,24.787 1.012,4.292 -6.975,1.662 -9.157,0.54 -5.899,-3.036 -9.104,-16.613 -12.167,-22.385 -0.732,-0.892 -3.769,-3.359 -4.41,-1.262 -0.709,1.751 -1.596,-1.247 -2.626,-0.314 -1.549,0.925 -2.09,2.207 -2.1,3.78 -1.982,0.879 -18.4,-0.082 -19.114,7.957 -1.791,6.26 14.259,-2.756 19.052,10.305 5.495,14.975 18.142,40.582 28.84,52.845 2.441,3.107 14.476,13.332 14.812,5.883 -1.365,-0.515 -3.569,-2.088 -0.632,-1.262 2.945,0.928 -0.716,-0.858 0.63,-1.049 4.393,2.265 4.399,-2.846 1.47,-4.727 1.302,1.838 4.094,1.402 1.786,-0.84 -1.546,-1.384 -1.144,-4.275 0.735,-5.567 C 27.851,8.904 12.407,-17.461 4.626,-37.743"
         style="fill:#ffffff;fill-opacity:1;fill-rule:nonzero;stroke:none"
         id="path23967" />
    </g>
    <g
       id="g26850"
       transform="matrix(0.31625627,0,0,-0.31625627,63.368923,96.275058)">
      <path
         d="M 0,0 C 0.239,-0.25 0.631,-0.58 1.177,-0.989 1.757,-1.433 2.226,-1.822 2.584,-2.158 2.942,-2.493 3.235,-2.905 3.462,-3.395 3.69,-3.884 3.77,-4.435 3.701,-5.049 3.599,-5.845 3.334,-6.499 2.908,-7.011 2.482,-7.522 1.973,-7.895 1.381,-8.128 0.791,-8.36 0.176,-8.478 -0.46,-8.478 c -1.047,0 -1.865,0.183 -2.457,0.546 -0.591,0.365 -0.983,0.87 -1.176,1.519 -0.194,0.647 -0.24,1.421 -0.137,2.319 h 3.36 c -0.08,-0.659 -0.074,-1.151 0.017,-1.475 0.091,-0.325 0.25,-0.486 0.478,-0.486 0.125,0 0.25,0.068 0.375,0.204 0.125,0.137 0.199,0.33 0.222,0.58 0.045,0.375 -0.006,0.706 -0.154,0.99 -0.148,0.284 -0.344,0.531 -0.588,0.742 -0.245,0.21 -0.589,0.469 -1.032,0.775 -0.489,0.342 -0.879,0.64 -1.169,0.896 -0.289,0.256 -0.523,0.571 -0.699,0.947 -0.176,0.375 -0.236,0.818 -0.179,1.33 0.091,0.705 0.318,1.32 0.682,1.842 0.364,0.523 0.839,0.924 1.425,1.203 0.585,0.278 1.247,0.418 1.987,0.418 0.909,0 1.649,-0.18 2.217,-0.537 C 3.281,2.977 3.681,2.501 3.915,1.91 4.147,1.319 4.219,0.671 4.127,-0.034 H 0.802 C 0.847,0.432 0.824,0.79 0.733,1.04 0.642,1.29 0.506,1.416 0.324,1.416 0.142,1.416 -0.003,1.358 -0.111,1.245 -0.219,1.131 -0.285,0.983 -0.307,0.802 -0.341,0.518 -0.239,0.25 0,0"
         style="fill:#ffffff;fill-opacity:1;fill-rule:nonzero;stroke:none"
         id="path23971" />
    </g>
    <g
       id="g26853"
       transform="matrix(0.31625627,0,0,-0.31625627,66.398223,98.019998)">
      <path
         d="M 0,0 C 0.091,0.131 0.153,0.315 0.187,0.554 L 0.836,5.927 C 0.87,6.166 0.858,6.351 0.802,6.481 0.745,6.612 0.625,6.678 0.443,6.678 0.262,6.678 0.125,6.612 0.034,6.481 -0.057,6.351 -0.12,6.166 -0.153,5.927 L -0.802,0.554 C -0.835,0.315 -0.825,0.131 -0.768,0 c 0.057,-0.131 0.177,-0.196 0.359,-0.196 0.181,0 0.318,0.065 0.409,0.196 m -2.857,-2.354 c -0.529,0.37 -0.887,0.83 -1.075,1.381 -0.187,0.552 -0.247,1.118 -0.178,1.698 l 0.613,5.031 c 0.069,0.58 0.265,1.145 0.589,1.697 0.324,0.552 0.796,1.012 1.416,1.382 C -0.873,9.204 -0.114,9.39 0.784,9.39 1.706,9.39 2.428,9.207 2.95,8.844 3.474,8.479 3.823,8.024 4,7.479 4.176,6.934 4.225,6.358 4.145,5.756 L 3.53,0.725 C 3.451,0.122 3.261,-0.452 2.959,-0.998 2.658,-1.544 2.2,-1.999 1.586,-2.362 0.972,-2.727 0.205,-2.908 -0.716,-2.908 c -0.899,0 -1.612,0.184 -2.141,0.554"
         style="fill:#ffffff;fill-opacity:1;fill-rule:nonzero;stroke:none"
         id="path23975" />
    </g>
    <g
       id="g26856"
       transform="matrix(0.31625627,0,0,-0.31625627,69.383809,98.036378)">
      <path
         d="M 0,0 C 0.079,0.097 0.15,0.282 0.213,0.555 0.275,0.827 0.341,1.242 0.409,1.8 H 3.735 C 3.553,0.355 3.127,-0.781 2.456,-1.611 c -0.671,-0.83 -1.7,-1.245 -3.087,-1.245 -0.898,0 -1.615,0.184 -2.149,0.553 -0.534,0.37 -0.896,0.83 -1.083,1.382 -0.188,0.552 -0.247,1.117 -0.179,1.697 l 0.631,5.032 c 0.068,0.58 0.265,1.145 0.588,1.697 0.324,0.552 0.796,1.012 1.416,1.382 0.619,0.369 1.379,0.554 2.277,0.554 1.375,0 2.303,-0.407 2.78,-1.219 C 4.128,7.408 4.287,6.319 4.128,4.955 H 0.802 c 0.056,0.5 0.085,0.876 0.085,1.126 0,0.25 -0.029,0.421 -0.085,0.512 C 0.744,6.684 0.648,6.729 0.512,6.729 0.33,6.729 0.193,6.664 0.103,6.533 0.011,6.402 -0.046,6.218 -0.068,5.979 L -0.733,0.605 c -0.012,-0.159 -0.009,-0.293 0.008,-0.4 0.017,-0.108 0.057,-0.193 0.12,-0.256 0.062,-0.062 0.156,-0.094 0.281,-0.094 0.137,0 0.244,0.048 0.324,0.145"
         style="fill:#ffffff;fill-opacity:1;fill-rule:nonzero;stroke:none"
         id="path23979" />
    </g>
    <g
       id="g26859"
       transform="matrix(0.31625627,0,0,-0.31625627,72.455566,95.115338)">
      <path
         d="M 0,0 -1.449,-11.939 H -4.775 L -3.326,0 Z"
         style="fill:#ffffff;fill-opacity:1;fill-rule:nonzero;stroke:none"
         id="path23983" />
    </g>
    <g
       id="g26862"
       transform="matrix(0.31625627,0,0,-0.31625627,74.939609,95.115338)">
      <path
         d="M 0,0 -0.272,-2.303 H -4.946 L -4.673,0 Z m -0.562,-4.69 -0.291,-2.303 h -4.672 l 0.289,2.303 z m -0.615,-4.947 -0.272,-2.302 h -4.674 l 0.273,2.302 z M -2.523,0 -3.974,-11.939 H -7.3 L -5.85,0 Z"
         style="fill:#ffffff;fill-opacity:1;fill-rule:nonzero;stroke:none"
         id="path23987" />
    </g>
    <g
       id="g26865"
       transform="matrix(0.31625627,0,0,-0.31625627,75.619355,98.163018)">
      <path
         d="m 0,0 h 2.269 c 0.147,0 0.266,0.031 0.358,0.094 0.091,0.062 0.158,0.147 0.204,0.256 0.046,0.107 0.08,0.241 0.103,0.4 L 3.649,6.584 C 3.661,6.731 3.655,6.862 3.633,6.976 3.61,7.09 3.559,7.178 3.479,7.24 3.399,7.303 3.297,7.334 3.173,7.334 H 0.903 L 1.177,9.637 H 3.445 C 4.354,9.637 5.08,9.452 5.62,9.083 6.16,8.713 6.526,8.252 6.721,7.701 6.913,7.149 6.977,6.584 6.908,6.004 L 6.328,1.33 C 6.26,0.75 6.061,0.185 5.73,-0.367 5.401,-0.918 4.923,-1.379 4.298,-1.748 3.673,-2.118 2.905,-2.303 1.995,-2.303 h -2.268 z m -0.137,9.637 h 3.326 l -1.45,-11.94 h -3.326 z"
         style="fill:#ffffff;fill-opacity:1;fill-rule:nonzero;stroke:none"
         id="path23991" />
    </g>
    <g
       id="g26868"
       transform="matrix(0.31625627,0,0,-0.31625627,80.369413,97.283728)">
      <path
         d="M 0,0 -0.29,-2.303 H -5.475 L -5.185,0 Z m -1.842,-5.083 -0.137,9.312 h -0.204 l -2.268,-9.312 h -3.207 l 3.377,11.939 h 5.27 L 1.364,-5.083 Z"
         style="fill:#ffffff;fill-opacity:1;fill-rule:nonzero;stroke:none"
         id="path23995" />
    </g>
    <g
       id="g26871"
       transform="matrix(0.31625627,0,0,-0.31625627,81.852766,98.163018)">
      <path
         d="M 0,0 H 2.269 C 2.416,0 2.536,0.031 2.627,0.094 2.718,0.156 2.786,0.241 2.832,0.35 2.877,0.457 2.911,0.591 2.934,0.75 L 3.65,6.584 C 3.661,6.731 3.656,6.862 3.633,6.976 3.61,7.09 3.56,7.178 3.479,7.24 3.4,7.303 3.298,7.334 3.173,7.334 H 0.904 L 1.177,9.637 H 3.445 C 4.355,9.637 5.08,9.452 5.62,9.083 6.16,8.713 6.527,8.252 6.721,7.701 6.914,7.149 6.977,6.584 6.908,6.004 L 6.328,1.33 C 6.26,0.75 6.061,0.185 5.731,-0.367 5.401,-0.918 4.924,-1.379 4.299,-1.748 3.673,-2.118 2.905,-2.303 1.996,-2.303 H -0.272 Z M -0.137,9.637 H 3.189 L 1.74,-2.303 h -3.326 z"
         style="fill:#ffffff;fill-opacity:1;fill-rule:nonzero;stroke:none"
         id="path23999" />
    </g>
    <g
       id="g26874"
       transform="matrix(0.31625627,0,0,-0.31625627,86.335319,98.163018)">
      <path
         d="m 0,0 h 2.269 c 0.147,0 0.266,0.031 0.358,0.094 0.091,0.062 0.159,0.147 0.204,0.256 0.046,0.107 0.08,0.241 0.103,0.4 L 3.65,6.584 C 3.661,6.731 3.655,6.862 3.633,6.976 3.61,7.09 3.559,7.178 3.479,7.24 3.399,7.303 3.298,7.334 3.173,7.334 H 0.904 L 1.177,9.637 H 3.445 C 4.354,9.637 5.08,9.452 5.62,9.083 6.16,8.713 6.527,8.252 6.721,7.701 6.913,7.149 6.977,6.584 6.908,6.004 L 6.328,1.33 C 6.26,0.75 6.061,0.185 5.73,-0.367 5.401,-0.918 4.923,-1.379 4.298,-1.748 3.673,-2.118 2.905,-2.303 1.996,-2.303 H -0.273 Z M -0.137,9.637 H 3.189 L 1.74,-2.303 h -3.326 z"
         style="fill:#ffffff;fill-opacity:1;fill-rule:nonzero;stroke:none"
         id="path24003" />
    </g>
    <g
       id="g26877"
       transform="matrix(0.31625627,0,0,-0.31625627,91.104828,95.115338)">
      <path
         d="M 0,0 -0.273,-2.303 H -4.946 L -4.674,0 Z m -0.562,-4.69 -0.291,-2.303 h -4.673 l 0.29,2.303 z m -0.615,-4.947 -0.273,-2.302 h -4.673 l 0.272,2.302 z M -2.524,0 -3.975,-11.939 H -7.301 L -5.851,0 Z"
         style="fill:#ffffff;fill-opacity:1;fill-rule:nonzero;stroke:none"
         id="path24007" />
    </g>
    <g
       id="g26880"
       transform="matrix(0.31625627,0,0,-0.31625627,95.662731,95.115338)">
      <path
         d="M 0,0 -1.449,-11.939 H -4.775 L -3.326,0 Z m -1.604,-4.452 -0.289,-2.302 h -5.39 l 0.29,2.302 z M -4.314,0 -5.765,-11.939 H -9.091 L -7.641,0 Z"
         style="fill:#ffffff;fill-opacity:1;fill-rule:nonzero;stroke:none"
         id="path24011" />
    </g>
    <g
       id="g26883"
       transform="matrix(0.31625627,0,0,-0.31625627,98.184751,97.283728)">
      <path
         d="M 0,0 -0.29,-2.303 H -5.476 L -5.186,0 Z m -1.843,-5.083 -0.136,9.312 h -0.205 l -2.268,-9.312 h -3.206 l 3.377,11.939 h 5.27 L 1.364,-5.083 Z"
         style="fill:#ffffff;fill-opacity:1;fill-rule:nonzero;stroke:none"
         id="path24015" />
    </g>
    <g
       id="g26886"
       transform="matrix(0.31625627,0,0,-0.31625627,99.624891,95.115338)">
      <path
         d="M 0,0 H 4.844 L 5.049,-7.471 H 5.236 L 7.181,0 h 4.827 l -1.45,-11.939 H 7.573 L 8.46,-4.725 H 8.119 L 6.072,-11.939 H 3.019 L 2.764,-4.725 H 2.422 L 1.535,-11.939 H -1.45 Z"
         style="fill:#ffffff;fill-opacity:1;fill-rule:nonzero;stroke:none"
         id="path24019" />
    </g>
    <g
       id="g26889"
       transform="matrix(0.31625627,0,0,-0.31625627,106.11029,97.300098)">
      <path
         d="m 0,0 c 0.193,-0.488 0.238,-1.148 0.137,-1.979 -0.069,-0.522 -0.259,-1.014 -0.572,-1.474 -0.313,-0.461 -0.776,-0.839 -1.39,-1.135 -0.614,-0.296 -1.382,-0.443 -2.303,-0.443 h -2.268 l 0.273,2.302 h 2.268 c 0.205,0 0.358,0.066 0.46,0.197 0.103,0.131 0.171,0.315 0.206,0.553 l 0.136,1.11 c 0.023,0.238 -0.009,0.423 -0.094,0.554 -0.085,0.13 -0.248,0.196 -0.486,0.196 h -2.166 l 0.256,2.098 h 2.166 c 0.159,0 0.281,0.065 0.366,0.196 0.086,0.131 0.146,0.315 0.179,0.554 l 0.137,1.126 c 0.022,0.227 -0.003,0.41 -0.076,0.546 -0.075,0.136 -0.208,0.204 -0.402,0.204 H -5.22 l 0.274,2.303 h 2.047 c 0.897,0 1.62,-0.179 2.166,-0.537 C -0.187,6.013 0.185,5.581 0.384,5.075 0.582,4.568 0.653,4.082 0.597,3.616 0.517,2.968 0.344,2.425 0.076,1.987 -0.19,1.55 -0.643,1.239 -1.279,1.058 -0.62,0.842 -0.193,0.489 0,0 m -3.155,6.908 -1.45,-11.939 h -3.327 l 1.451,11.939 z"
         style="fill:#ffffff;fill-opacity:1;fill-rule:nonzero;stroke:none"
         id="path24023" />
    </g>
    <g
       id="g26892"
       transform="matrix(0.31625627,0,0,-0.31625627,107.1162,98.764618)">
      <path
         d="m 0,0 c -0.528,0.37 -0.887,0.83 -1.074,1.382 -0.188,0.552 -0.247,1.117 -0.179,1.697 l 1.04,8.46 H 3.113 L 2.056,2.908 C 2.021,2.67 2.032,2.485 2.09,2.354 2.146,2.224 2.266,2.158 2.448,2.158 c 0.182,0 0.319,0.066 0.409,0.196 0.091,0.131 0.154,0.316 0.188,0.554 l 1.058,8.631 H 7.429 L 6.388,3.079 C 6.319,2.477 6.132,1.902 5.825,1.356 5.519,0.811 5.058,0.355 4.443,-0.008 3.829,-0.372 3.062,-0.554 2.141,-0.554 1.242,-0.554 0.529,-0.369 0,0"
         style="fill:#ffffff;fill-opacity:1;fill-rule:nonzero;stroke:none"
         id="path24027" />
    </g>
    <g
       id="g26895"
       transform="matrix(0.31625627,0,0,-0.31625627,111.76336,97.127458)">
      <path
         d="M 0,0 0.955,-5.577 H -2.03 l -0.273,4.64 z M -1.45,3.31 C -1.428,3.536 -1.453,3.719 -1.527,3.855 -1.601,3.991 -1.734,4.06 -1.928,4.06 H -2.234 L -2.61,0.938 h 0.307 c 0.204,0 0.356,0.066 0.452,0.197 0.096,0.131 0.162,0.315 0.196,0.553 z M 0.469,5.809 C 1.009,5.438 1.384,4.975 1.595,4.418 1.805,3.86 1.876,3.298 1.808,2.729 L 1.739,2.269 C 1.671,1.688 1.472,1.123 1.143,0.571 0.812,0.021 0.335,-0.44 -0.29,-0.81 -0.916,-1.18 -1.684,-1.364 -2.593,-1.364 H -2.9 l -0.512,-4.213 h -3.326 l 1.45,11.939 h 3.633 c 0.876,0 1.584,-0.184 2.124,-0.553"
         style="fill:#ffffff;fill-opacity:1;fill-rule:nonzero;stroke:none"
         id="path24031" />
    </g>
    <g
       id="g26898"
       transform="matrix(0.31625627,0,0,-0.31625627,114.57789,96.873878)">
      <path
         d="M 0,0 H 2.303 L 1.519,-6.379 h -2.303 z m -4.725,-6.029 c -0.409,0.335 -0.693,0.779 -0.852,1.33 -0.159,0.552 -0.199,1.151 -0.119,1.8 l 0.613,5.031 c 0.068,0.58 0.265,1.145 0.589,1.697 0.324,0.552 0.796,1.012 1.416,1.382 0.619,0.369 1.378,0.555 2.276,0.555 1.376,0 2.306,-0.408 2.789,-1.22 C 2.471,3.732 2.627,2.644 2.456,1.279 H -0.87 c 0.068,0.569 0.08,0.95 0.034,1.143 C -0.881,2.615 -1,2.712 -1.194,2.712 -1.296,2.712 -1.388,2.681 -1.467,2.618 -1.547,2.556 -1.611,2.468 -1.663,2.354 -1.714,2.24 -1.751,2.109 -1.773,1.962 l -0.581,-4.691 c -0.011,-0.159 -0.008,-0.292 0.009,-0.401 0.017,-0.107 0.057,-0.193 0.119,-0.256 0.063,-0.062 0.157,-0.093 0.282,-0.093 0.193,0 0.335,0.087 0.426,0.264 0.091,0.176 0.164,0.509 0.222,0.998 L -1.023,0 H 2.303 L 1.962,-2.746 h -2.559 c -0.182,-1.228 -0.483,-2.166 -0.904,-2.815 -0.421,-0.647 -0.967,-0.971 -1.637,-0.971 -0.648,0 -1.177,0.168 -1.587,0.503"
         style="fill:#ffffff;fill-opacity:1;fill-rule:nonzero;stroke:none"
         id="path24035" />
    </g>
    <g
       id="g26901"
       transform="matrix(0.31625627,0,0,-0.31625627,116.18173,98.764618)">
      <path
         d="m 0,0 c -0.529,0.37 -0.888,0.83 -1.075,1.382 -0.188,0.552 -0.247,1.117 -0.179,1.697 l 1.04,8.46 H 3.112 L 2.055,2.908 C 2.021,2.67 2.032,2.485 2.089,2.354 2.146,2.224 2.266,2.158 2.447,2.158 c 0.182,0 0.319,0.066 0.409,0.196 0.091,0.131 0.154,0.316 0.188,0.554 l 1.058,8.631 H 7.428 L 6.387,3.079 C 6.319,2.477 6.131,1.902 5.824,1.356 5.518,0.811 5.057,0.355 4.442,-0.008 3.829,-0.372 3.062,-0.554 2.141,-0.554 1.242,-0.554 0.528,-0.369 0,0"
         style="fill:#ffffff;fill-opacity:1;fill-rule:nonzero;stroke:none"
         id="path24039" />
    </g>
    <g
       id="g26904"
       transform="matrix(0.31625627,0,0,-0.31625627,121.00646,95.115338)">
      <path
         d="M 0,0 -0.272,-2.303 H -4.946 L -4.673,0 Z m -0.562,-4.69 -0.291,-2.303 h -4.672 l 0.289,2.303 z m -0.615,-4.947 -0.272,-2.302 h -4.674 l 0.273,2.302 z M -2.523,0 -3.974,-11.939 H -7.3 L -5.85,0 Z"
         style="fill:#ffffff;fill-opacity:1;fill-rule:nonzero;stroke:none"
         id="path24043" />
    </g>
    <g
       id="g26907"
       transform="matrix(0.31625627,0,0,-0.31625627,122.61308,96.275058)">
      <path
         d="M 0,0 C 0.238,-0.25 0.631,-0.58 1.177,-0.989 1.757,-1.433 2.226,-1.822 2.584,-2.158 2.942,-2.493 3.234,-2.905 3.462,-3.395 3.689,-3.884 3.77,-4.435 3.701,-5.049 3.599,-5.845 3.334,-6.499 2.908,-7.011 2.481,-7.522 1.973,-7.895 1.381,-8.128 0.79,-8.36 0.176,-8.478 -0.461,-8.478 c -1.046,0 -1.864,0.183 -2.456,0.546 -0.591,0.365 -0.983,0.87 -1.177,1.519 -0.193,0.647 -0.238,1.421 -0.136,2.319 h 3.36 c -0.08,-0.659 -0.074,-1.151 0.016,-1.475 0.092,-0.325 0.251,-0.486 0.479,-0.486 0.125,0 0.249,0.068 0.375,0.204 0.125,0.137 0.198,0.33 0.222,0.58 0.045,0.375 -0.006,0.706 -0.154,0.99 -0.148,0.284 -0.344,0.531 -0.589,0.742 -0.245,0.21 -0.588,0.469 -1.032,0.775 -0.488,0.342 -0.878,0.64 -1.168,0.896 -0.29,0.256 -0.523,0.571 -0.699,0.947 -0.177,0.375 -0.236,0.818 -0.18,1.33 0.092,0.705 0.319,1.32 0.683,1.842 0.364,0.523 0.839,0.924 1.425,1.203 0.585,0.278 1.247,0.418 1.986,0.418 0.91,0 1.65,-0.18 2.218,-0.537 C 3.28,2.977 3.681,2.501 3.914,1.91 4.147,1.319 4.219,0.671 4.127,-0.034 H 0.802 C 0.847,0.432 0.824,0.79 0.733,1.04 0.642,1.29 0.506,1.416 0.324,1.416 0.142,1.416 -0.003,1.358 -0.111,1.245 -0.219,1.131 -0.285,0.983 -0.307,0.802 -0.342,0.518 -0.239,0.25 0,0"
         style="fill:#ffffff;fill-opacity:1;fill-rule:nonzero;stroke:none"
         id="path24047" />
    </g>
    <g
       id="g26910"
       transform="matrix(0.31625627,0,0,-0.31625627,126.55301,97.283728)">
      <path
         d="M 0,0 -0.29,-2.303 H -5.476 L -5.186,0 Z m -1.843,-5.083 -0.136,9.312 h -0.205 l -2.268,-9.312 h -3.206 l 3.377,11.939 h 5.27 L 1.364,-5.083 Z"
         style="fill:#ffffff;fill-opacity:1;fill-rule:nonzero;stroke:none"
         id="path24051" />
    </g>
    <g
       id="g26913"
       transform="matrix(0.31625627,0,0,-0.31625627,128.92679,96.275058)">
      <path
         d="M 0,0 C 0.239,-0.25 0.631,-0.58 1.177,-0.989 1.757,-1.433 2.226,-1.822 2.584,-2.158 2.942,-2.493 3.235,-2.905 3.463,-3.395 3.69,-3.884 3.77,-4.435 3.701,-5.049 3.599,-5.845 3.335,-6.499 2.908,-7.011 2.481,-7.522 1.973,-7.895 1.382,-8.128 0.79,-8.36 0.177,-8.478 -0.461,-8.478 c -1.046,0 -1.864,0.183 -2.455,0.546 -0.592,0.365 -0.984,0.87 -1.178,1.519 -0.193,0.647 -0.238,1.421 -0.135,2.319 h 3.359 c -0.079,-0.659 -0.074,-1.151 0.017,-1.475 0.091,-0.325 0.25,-0.486 0.478,-0.486 0.125,0 0.25,0.068 0.375,0.204 0.125,0.137 0.199,0.33 0.222,0.58 0.045,0.375 -0.006,0.706 -0.154,0.99 -0.147,0.284 -0.343,0.531 -0.589,0.742 -0.244,0.21 -0.587,0.469 -1.031,0.775 -0.489,0.342 -0.879,0.64 -1.169,0.896 -0.29,0.256 -0.522,0.571 -0.699,0.947 -0.176,0.375 -0.236,0.818 -0.179,1.33 0.091,0.705 0.319,1.32 0.683,1.842 0.363,0.523 0.838,0.924 1.424,1.203 0.586,0.278 1.247,0.418 1.987,0.418 0.909,0 1.649,-0.18 2.217,-0.537 C 3.28,2.977 3.682,2.501 3.915,1.91 4.147,1.319 4.219,0.671 4.128,-0.034 H 0.802 C 0.847,0.432 0.824,0.79 0.733,1.04 0.643,1.29 0.506,1.416 0.324,1.416 0.143,1.416 -0.003,1.358 -0.11,1.245 -0.219,1.131 -0.284,0.983 -0.307,0.802 -0.341,0.518 -0.238,0.25 0,0"
         style="fill:#ffffff;fill-opacity:1;fill-rule:nonzero;stroke:none"
         id="path24055" />
    </g>
    <g
       id="g26916"
       transform="matrix(0.31625627,0,0,-0.31625627,61.022926,95.443018)">
      <path
         d="m 0,0 c -1.939,-0.89 -3.859,0.793 -5.422,2.699 -1.37,1.671 -4.105,2.337 -3.884,6.776 -5.94,-14.429 -11.751,-28.215 -15.492,-32.687 -12.83,-15.684 -12.037,2.721 -12.881,4.238 -1.219,3.283 -4.98,2.706 -6.415,1.577 -5.127,-4.036 -5.159,-27.774 16.719,-23.099 14.792,5.152 18.494,17.753 28.982,41.923 C 1.103,0.764 0.568,0.261 0,0"
         style="fill:#ed184e;fill-opacity:1;fill-rule:nonzero;stroke:none"
         id="path24059" />
    </g>
  </g>
</svg>
